REM DIRINDEX 1\2,1\3
REM DIRNAME cjc080,folder01,folder02
TITLE ""
FILE "ScrambleS_3Part2_Theme168.mp3" MP3
  TRACK 01 AUDIO
    TITLE "3:cjc080_0882"
    INDEX 01 00:00:00
  TRACK 02 AUDIO
    TITLE "0:"
    INDEX 01 00:02:02
  TRACK 03 AUDIO
    TITLE "2:cjc080_0883"
    INDEX 01 00:03:19
  TRACK 04 AUDIO
    TITLE "0:"
    INDEX 01 00:06:30
  TRACK 05 AUDIO
    TITLE "2:cjc080_0884"
    INDEX 01 00:07:51
  TRACK 06 AUDIO
    TITLE "0:"
    INDEX 01 00:12:30
